<svg width="160" height="160" viewBox="0 0 160 160" fill="none" xmlns="http://www.w3.org/2000/svg">
<g clip-path="url(#clip0_2019_13789)">
<rect width="160" height="160" rx="20" fill="white"/>
<rect width="217" height="162" fill="black"/>
<path d="M23.9141 112L46.5541 55.76H55.4341L77.9941 112H66.3941L48.9541 65.84H52.9541L35.2741 112H23.9141ZM35.9141 101.52V92.4H66.1541V101.52H35.9141ZM81.7416 112V73.36H92.3016V112H81.7416ZM87.0216 67.12C85.3149 67.12 83.9016 66.56 82.7816 65.44C81.6616 64.2667 81.1016 62.8267 81.1016 61.12C81.1016 59.4667 81.6616 58.0533 82.7816 56.88C83.9016 55.7067 85.3149 55.12 87.0216 55.12C88.7816 55.12 90.1949 55.7067 91.2616 56.88C92.3816 58.0533 92.9416 59.4667 92.9416 61.12C92.9416 62.8267 92.3816 64.2667 91.2616 65.44C90.1949 66.56 88.7816 67.12 87.0216 67.12Z" fill="white"/>
<path d="M107.505 112L114.305 63.2H99.1853L100.705 52.4H143.105L141.585 63.2H126.705L119.905 112H107.505Z" fill="#B9FD50"/>
</g>
<defs>
<clipPath id="clip0_2019_13789">
<rect width="160" height="160" rx="20" fill="white"/>
</clipPath>
</defs>
</svg>
