<svg width="32" height="31" viewBox="0 0 32 31" fill="none" xmlns="http://www.w3.org/2000/svg">
<path d="M8.16797 14.0865V11.3827C8.16797 11.2227 8.16797 11.1587 8.36371 11.1587C10.0417 11.1587 11.4056 11.0526 12.0828 11.4788C12.7616 11.9033 12.79 12.4895 12.801 12.6647C12.8121 12.8399 12.8074 13.0909 12.4916 13.7024C12.1759 14.3139 10.7631 14.3257 9.74337 14.3257H8.3937C8.22795 14.3257 8.16797 14.2616 8.16797 14.0865ZM12.8184 16.9199C12.9747 17.1328 13.0863 17.3792 13.1456 17.6422C13.2049 17.9053 13.2105 18.1789 13.162 18.4444C13.1135 18.7099 13.012 18.9613 12.8645 19.1813C12.7169 19.4013 12.5268 19.5849 12.3069 19.7196C11.984 19.8646 11.6376 19.9407 11.2872 19.9436H8.37792C8.22795 19.9436 8.16797 19.9436 8.16797 19.7364V16.5358C8.16797 16.3758 8.16797 16.3117 8.36371 16.3117H10.2974C11.4971 16.3117 12.247 16.2006 12.8184 16.9199Z" fill="white"/>
<path d="M23.1824 15.0174C23.1009 14.8316 22.9771 14.6659 22.8204 14.5326C22.6636 14.3992 22.4778 14.3017 22.2768 14.2472C21.8749 14.1411 21.4543 14.1186 21.0428 14.1812C20.6313 14.2439 20.2382 14.3902 19.8896 14.6107C19.5421 14.95 19.3176 15.389 19.2496 15.8619C19.2496 16.0274 19.2496 16.0583 19.4528 16.0583H23.2448C23.432 16.0583 23.432 16.0583 23.416 15.831C23.3981 15.5467 23.3195 15.2694 23.1824 15.0174ZM23.1824 15.0174C23.1009 14.8316 22.9755 14.6659 22.8188 14.5326C22.662 14.3992 22.4778 14.3017 22.2768 14.2472C21.8749 14.1411 21.4543 14.1186 21.0428 14.1812C20.6313 14.2439 20.2382 14.3902 19.8896 14.6107C19.5421 14.95 19.316 15.389 19.248 15.8619C19.248 16.0274 19.248 16.0583 19.4512 16.0583H23.2448C23.432 16.0583 23.432 16.0583 23.416 15.831C23.3981 15.5467 23.3163 15.2694 23.1792 15.0174M24.96 0.464844H6.24C4.58505 0.464844 2.99788 1.10036 1.82765 2.23157C0.657426 3.36279 0 4.89706 0 6.49684V24.5928C0 26.1926 0.657426 27.7269 1.82765 28.8581C2.99788 29.9893 4.58505 30.6248 6.24 30.6248H24.96C26.6149 30.6248 28.2021 29.9893 29.3723 28.8581C30.5426 27.7269 31.2 26.1926 31.2 24.5928V6.49684C31.2 4.89706 30.5426 3.36279 29.3723 2.23157C28.2021 1.10036 26.6149 0.464844 24.96 0.464844ZM18.8448 10.0696C18.8448 9.95055 18.8448 9.90415 18.9856 9.90415H24.04V11.1724C24.04 11.1724 24.0448 11.2621 23.9616 11.2621H19.064C18.8448 11.2621 18.8448 11.2621 18.8448 11.0518V10.0696ZM14.1648 21.1546C12.2448 22.1646 9.0176 21.7578 5.1952 21.7578V9.25609H11.2944C12.8544 9.25609 14.7104 9.63348 15.2096 11.2312C15.4688 11.929 15.453 12.6947 15.1653 13.382C14.8775 14.0693 14.3379 14.63 13.6496 14.9571C14.2841 15.1841 14.838 15.582 15.2458 16.1038C15.6537 16.6256 15.8983 17.2494 15.9508 17.9014C16.0034 18.5534 15.8616 19.2063 15.5422 19.7829C15.2228 20.3594 14.7393 20.8354 14.1488 21.1546H14.1648ZM25.7872 17.5957H19.5472C19.376 17.5957 19.2192 17.6854 19.2496 17.8973C19.4368 18.7866 19.8576 19.7224 20.8112 19.8585C21.3147 20.0033 21.8539 19.9811 22.3428 19.7952C22.8317 19.6094 23.2422 19.2707 23.5088 18.833C23.5088 18.833 23.5872 18.7418 23.6336 18.7418H25.6624C25.6624 18.7418 25.7872 18.7418 25.7552 18.847C25.5412 19.4326 25.2246 19.9783 24.8192 20.4601C24.277 20.9608 23.6227 21.334 22.9071 21.5506C22.1915 21.7673 21.4339 21.8216 20.6931 21.7094C19.9523 21.5972 19.2482 21.3215 18.6355 20.9037C18.0227 20.4858 17.5178 19.9371 17.16 19.3001C16.9399 18.8754 16.8027 18.415 16.7552 17.9422C16.4769 16.7537 16.6896 15.5072 17.348 14.468C18.0063 13.4289 19.0584 12.6793 20.28 12.3788C23.8208 11.6395 26.0672 13.992 26.0672 17.3096C26.0724 17.3484 26.0684 17.3878 26.0554 17.4248C26.0423 17.4618 26.0207 17.4955 25.9921 17.5231C25.9635 17.5508 25.9287 17.5717 25.8904 17.5843C25.8521 17.5969 25.8113 17.6008 25.7712 17.5957H25.7872ZM22.2928 14.2472C21.8913 14.1395 21.4704 14.1174 21.0592 14.1822C20.648 14.2441 20.28 14.3199 19.9056 14.6107C19.5312 14.8999 19.3328 15.3886 19.2656 15.8619C19.2656 16.0274 19.2656 16.0583 19.4688 16.0583H23.2448C23.432 16.0583 23.432 16.0583 23.416 15.831C23.3981 15.5467 23.3195 15.2694 23.1824 15.0174C23.1009 14.8316 22.9771 14.6659 22.8204 14.5326C22.6636 14.3992 22.4778 14.3017 22.2768 14.2472H22.2928Z" fill="white"/>
</svg>
