<svg width="36" height="31" viewBox="0 0 36 31" fill="none" xmlns="http://www.w3.org/2000/svg">
<path d="M12.4863 30.8V29.4H16.4863V25.4H3.48633C2.61966 25.4 1.90299 25.1167 1.33633 24.55C0.769661 23.9833 0.486328 23.2667 0.486328 22.4V3C0.486328 2.13333 0.769661 1.41667 1.33633 0.849999C1.90299 0.283333 2.61966 0 3.48633 0H32.2863C33.153 0 33.8697 0.283333 34.4363 0.849999C35.003 1.41667 35.2863 2.13333 35.2863 3V22.4C35.2863 23.2667 35.003 23.9833 34.4363 24.55C33.8697 25.1167 33.153 25.4 32.2863 25.4H19.2863V29.4H23.2863V30.8H12.4863ZM3.48633 24H32.2863C32.6863 24 33.053 23.8333 33.3863 23.5C33.7197 23.1667 33.8863 22.8 33.8863 22.4V3C33.8863 2.6 33.7197 2.23333 33.3863 1.9C33.053 1.56667 32.6863 1.4 32.2863 1.4H3.48633C3.08633 1.4 2.71966 1.56667 2.38633 1.9C2.05299 2.23333 1.88633 2.6 1.88633 3V22.4C1.88633 22.8 2.05299 23.1667 2.38633 23.5C2.71966 23.8333 3.08633 24 3.48633 24Z" fill="#E6E6E6"/>
</svg>
