<svg width="34" height="35" viewBox="0 0 34 35" fill="none" xmlns="http://www.w3.org/2000/svg">
<path d="M28.3273 11.7498L22.6773 6.1498L25.3273 3.5498C25.9273 2.9498 26.644 2.6498 27.4773 2.6498C28.3107 2.6498 29.0107 2.9498 29.5773 3.5498L30.9273 4.9498C31.494 5.51647 31.7773 6.21647 31.7773 7.0498C31.7773 7.88314 31.494 8.58314 30.9273 9.1498L28.3273 11.7498ZM1.72734 32.6998V27.0498L10.8273 17.9498L0.277344 7.3498L6.82734 0.799805L17.4773 11.3998L22.6773 6.1498L28.3273 11.7498L23.1273 16.9998L33.6773 27.6498L27.1273 34.1998L16.4773 23.5998L7.37734 32.6998H1.72734ZM11.8273 16.9998L16.4773 12.3498L12.2273 8.0998L9.87734 10.4498L8.87734 9.44981L11.2273 7.0998L6.82734 2.6998L2.17734 7.3498L11.8273 16.9998ZM27.0773 32.2498L31.7273 27.5998L27.3273 23.1998L24.9773 25.5498L23.9773 24.5498L26.3273 22.1998L22.0773 17.9498L17.4273 22.5998L27.0773 32.2498ZM3.12734 31.2998H6.77734L26.3273 11.7498L22.6773 8.0998L3.12734 27.6498V31.2998Z" fill="#E6E6E6"/>
</svg>
