<svg width="32" height="31" viewBox="0 0 32 31" fill="none" xmlns="http://www.w3.org/2000/svg">
<path fill-rule="evenodd" clip-rule="evenodd" d="M15.6992 0.544922C7.14228 0.544922 0.199219 7.26401 0.199219 15.5449C0.199219 23.8259 7.14228 30.5449 15.6992 30.5449C24.2393 30.5449 31.1992 23.8259 31.1992 15.5449C31.1992 7.26401 24.2393 0.544922 15.6992 0.544922ZM25.9373 7.45924C27.7865 9.63928 28.8961 12.4213 28.9297 15.431C28.4926 15.3497 24.1216 14.4874 19.7171 15.0243C19.6163 14.8128 19.5322 14.585 19.4313 14.3573C19.1623 13.7391 18.8598 13.1046 18.5571 12.5026C23.4324 10.5829 25.6515 7.81716 25.9373 7.45924ZM15.6992 2.75751C19.0615 2.75751 22.1379 3.97768 24.4747 5.97877C24.2393 6.30414 22.2388 8.89091 17.5316 10.5991C15.363 6.7434 12.959 3.58722 12.5891 3.09915C13.581 2.87138 14.6233 2.75751 15.6992 2.75751ZM10.0675 3.96141C10.4205 4.41694 12.7741 7.58939 14.9763 11.3638C8.78978 12.9582 3.32612 12.9256 2.73772 12.9256C3.59509 8.95599 6.36895 5.65338 10.0675 3.96141ZM2.45193 15.5612C2.45193 15.431 2.45193 15.3009 2.45193 15.1708C3.02351 15.187 9.44543 15.2684 16.0522 13.3486C16.439 14.0644 16.792 14.7965 17.1282 15.5286C16.96 15.5775 16.7751 15.6263 16.607 15.675C9.78165 17.8063 6.15041 23.6306 5.84781 24.1186C3.74639 21.8573 2.45193 18.8475 2.45193 15.5612ZM15.6992 28.3649C12.6395 28.3649 9.81527 27.3562 7.57937 25.6642C7.81473 25.1925 10.5045 20.1816 17.9687 17.6599C18.0023 17.6436 18.0192 17.6436 18.0528 17.6274C19.9188 22.2965 20.6754 26.2173 20.8771 27.3399C19.28 28.0069 17.5316 28.3649 15.6992 28.3649ZM23.0793 26.1686C22.9449 25.3876 22.2388 21.6458 20.5072 17.0416C24.6597 16.4071 28.2908 17.4484 28.7448 17.5949C28.1732 21.1577 26.055 24.2325 23.0793 26.1686Z" fill="white"/>
</svg>
