<svg width="30" height="31" viewBox="0 0 30 31" fill="none" xmlns="http://www.w3.org/2000/svg">
<g clip-path="url(#clip0_1887_14404)">
<path fill-rule="evenodd" clip-rule="evenodd" d="M15.0124 0.465332C6.71094 0.465332 0 7.22574 0 15.5893C0 22.2747 4.29993 27.9338 10.2651 29.9367C11.0109 30.0873 11.284 29.6113 11.284 29.2109C11.284 28.8603 11.2595 27.6585 11.2595 26.4063C7.08337 27.3078 6.21374 24.6034 6.21374 24.6034C5.54261 22.8506 4.54822 22.4001 4.54822 22.4001C3.18139 21.4736 4.64778 21.4736 4.64778 21.4736C6.16396 21.5738 6.95954 23.026 6.95954 23.026C8.30148 25.3295 10.4639 24.6787 11.3338 24.278C11.458 23.3014 11.8559 22.6253 12.2784 22.2498C8.94771 21.8992 5.44336 20.5972 5.44336 14.7879C5.44336 13.1353 6.0395 11.7832 6.98412 10.7316C6.83508 10.3561 6.31299 8.80338 7.13346 6.72516C7.13346 6.72516 8.40104 6.32446 11.2592 8.2776C12.4828 7.94654 13.7448 7.77813 15.0124 7.77672C16.28 7.77672 17.5721 7.95218 18.7654 8.2776C21.6238 6.32446 22.8914 6.72516 22.8914 6.72516C23.7118 8.80338 23.1894 10.3561 23.0404 10.7316C24.0099 11.7832 24.5815 13.1353 24.5815 14.7879C24.5815 20.5972 21.0771 21.874 17.7215 22.2498C18.2685 22.7255 18.7405 23.6268 18.7405 25.0542C18.7405 27.0823 18.7159 28.71 18.7159 29.2106C18.7159 29.6113 18.9894 30.0873 19.7349 29.937C25.7 27.9335 29.9999 22.2747 29.9999 15.5893C30.0245 7.22574 23.289 0.465332 15.0124 0.465332Z" fill="white"/>
</g>
<defs>
<clipPath id="clip0_1887_14404">
<rect width="30" height="30" fill="white" transform="translate(0 0.465332)"/>
</clipPath>
</defs>
</svg>
