<svg width="32" height="32" viewBox="0 0 32 32" fill="none" xmlns="http://www.w3.org/2000/svg">
<path d="M2.94902 15.7319C2.94902 12.1232 4.03654 8.93729 6.12998 6.66489C8.20966 4.40527 11.3739 2.94999 15.7309 2.94999C20.0879 2.94999 23.2512 4.40527 25.3318 6.66489C27.4253 8.93729 28.5128 12.1222 28.5128 15.7309C28.5128 16.1452 28.4984 16.5529 28.4695 16.9541C28.794 17.1301 29.0615 17.3936 29.2434 17.7132C29.6544 17.7624 30.0261 17.9394 30.3191 18.2019C30.426 17.3943 30.4794 16.571 30.4794 15.7319C30.4794 11.7387 29.2729 8.04151 26.7782 5.33252C24.2708 2.60977 20.553 0.983398 15.7319 0.983398C10.9108 0.983398 7.18998 2.60977 4.68257 5.33252C2.18794 8.04151 0.982422 11.7387 0.982422 15.7319C0.982422 16.5716 1.03585 17.3953 1.1427 18.2029C1.44312 17.9329 1.8194 17.7619 2.22039 17.7132C2.40163 17.3938 2.66868 17.1315 2.9913 16.9561C2.96306 16.5483 2.94896 16.1406 2.94902 15.7319ZM12.4555 28.207C11.9928 28.8809 11.362 29.4223 10.6256 29.7773C12.1566 30.2355 13.8607 30.4804 15.7309 30.4804C17.6011 30.4804 19.3052 30.2345 20.8381 29.7763C20.1019 29.4216 19.4711 28.8806 19.0082 28.207C17.9285 28.4168 16.8308 28.5196 15.7309 28.5138C14.5529 28.5138 13.4614 28.4076 12.4555 28.207Z" fill="white"/>
<path d="M7.7558 13.1154C7.7263 13.1351 7.69746 13.1554 7.66927 13.1764C7.33474 13.4271 7.08881 13.7779 6.96716 14.1778C6.84551 14.5778 6.85448 15.0061 6.99276 15.4006C6.65192 15.6286 6.24833 15.7444 5.83845 15.7317C5.42857 15.719 5.03291 15.5785 4.70683 15.3299C4.38074 15.0812 4.14054 14.7368 4.01984 14.3449C3.89913 13.953 3.90395 13.5332 4.03363 13.1442C4.1633 12.7551 4.41135 12.4164 4.74306 12.1753C5.07477 11.9342 5.47355 11.8028 5.88361 11.7995C6.29367 11.7962 6.6945 11.9212 7.03001 12.157C7.36553 12.3928 7.61895 12.7275 7.75482 13.1145M24.4719 15.4016C24.6163 14.9899 24.6197 14.5418 24.4816 14.1279C24.3434 13.7141 24.0716 13.3579 23.7088 13.1154C23.8446 12.7285 24.0979 12.3937 24.4333 12.1578C24.7687 11.9219 25.1695 11.7968 25.5795 11.8C25.9896 11.8031 26.3884 11.9343 26.7202 12.1753C27.052 12.4163 27.3001 12.7549 27.4299 13.1439C27.5598 13.5328 27.5648 13.9527 27.4442 14.3446C27.3237 14.7365 27.0836 15.081 26.7577 15.3298C26.4317 15.5786 26.0361 15.7192 25.6263 15.7321C25.2164 15.745 24.8128 15.6294 24.4719 15.4016ZM9.1924 9.256C8.9859 9.48019 8.87774 9.77715 8.83153 10.021C8.78172 10.2771 8.63221 10.5029 8.41591 10.6488C8.1996 10.7946 7.93421 10.8486 7.67812 10.7988C7.42203 10.749 7.19621 10.5995 7.05034 10.3832C6.90448 10.1669 6.85052 9.90148 6.90033 9.64538C6.98784 9.197 7.20515 8.51164 7.744 7.9256C8.31136 7.3071 9.15995 6.8833 10.3242 6.8833C11.4992 6.8833 12.3517 7.32775 12.9161 7.94723C13.4511 8.53426 13.6733 9.21765 13.7519 9.66505C13.7965 9.92205 13.7372 10.1862 13.587 10.3995C13.4368 10.6128 13.2081 10.7576 12.951 10.8022C12.694 10.8468 12.4299 10.7875 12.2166 10.6373C12.0033 10.4871 11.8585 10.2583 11.8139 10.0013C11.7645 9.73083 11.6429 9.47872 11.4618 9.27173C11.278 9.06819 10.9554 8.8499 10.3242 8.8499C9.68208 8.8499 9.36841 9.06327 9.1924 9.256ZM20.0096 9.256C19.8032 9.48019 19.695 9.77715 19.6478 10.021C19.595 10.2741 19.4447 10.4962 19.2294 10.6393C19.0141 10.7824 18.7511 10.8349 18.4974 10.7856C18.2436 10.7362 18.0195 10.5888 17.8736 10.3754C17.7276 10.1621 17.6716 9.89978 17.7176 9.64538C17.8041 9.197 18.0224 8.51164 18.5603 7.9256C19.1276 7.3071 19.9762 6.8833 21.1404 6.8833C22.3165 6.8833 23.168 7.32775 23.7324 7.94723C24.2673 8.53426 24.4896 9.21765 24.5682 9.66505C24.6128 9.92205 24.5535 10.1862 24.4033 10.3995C24.2531 10.6128 24.0243 10.7576 23.7673 10.8022C23.5103 10.8468 23.2461 10.7875 23.0329 10.6373C22.8196 10.4871 22.6747 10.2583 22.6301 10.0013C22.5808 9.73083 22.4591 9.47872 22.2781 9.27173C22.0942 9.06819 21.7717 8.8499 21.1404 8.8499C20.4983 8.8499 20.1857 9.06327 20.0096 9.256ZM8.25925 13.963C8.36255 13.8856 8.4801 13.8292 8.60519 13.7971C8.73028 13.7651 8.86045 13.758 8.98828 13.7763C9.11611 13.7945 9.2391 13.8378 9.35021 13.9036C9.46132 13.9694 9.55839 14.0564 9.63586 14.1597C9.92889 14.5501 11.5946 16.2246 15.7323 16.2246C19.87 16.2246 21.5357 14.5501 21.8288 14.1597C21.9852 13.9511 22.2182 13.8131 22.4763 13.7763C22.6042 13.758 22.7343 13.7651 22.8594 13.7971C22.9845 13.8292 23.1021 13.8856 23.2054 13.963C23.3087 14.0405 23.3957 14.1376 23.4615 14.2487C23.5273 14.3598 23.5705 14.4828 23.5888 14.6106C23.6071 14.7385 23.6 14.8686 23.5679 14.9937C23.5359 15.1188 23.4795 15.2364 23.402 15.3397C22.7118 16.26 20.4443 18.1912 15.7323 18.1912C11.0203 18.1912 8.75286 16.26 8.06259 15.3397C7.98511 15.2364 7.92874 15.1188 7.89669 14.9937C7.86464 14.8686 7.85755 14.7385 7.87581 14.6106C7.89407 14.4828 7.93733 14.3598 8.00312 14.2487C8.06891 14.1376 8.15594 14.0405 8.25925 13.963ZM28.5053 18.8205C28.5334 18.6218 28.4999 18.4193 28.4095 18.2401C28.3191 18.061 28.176 17.9138 27.9995 17.8183C27.823 17.7228 27.6215 17.6836 27.4221 17.706C27.2227 17.7284 27.0349 17.8112 26.8839 17.9434L23.1857 21.1804L23.108 21.1411C23.108 20.735 23.1454 20.3663 23.1788 20.0349C23.2673 19.1617 23.3293 18.5472 22.6164 18.1912C21.3007 17.5334 20.697 19.7291 20.2928 21.8717C20.2004 22.3594 19.9782 22.8108 19.7304 23.2405C18.4226 25.505 19.6655 27.7774 20.6498 28.5158C22.4089 29.8354 24.0913 29.4991 25.5663 28.5158C26.4591 27.9209 28.1573 26.7262 29.4277 25.8246C29.6477 25.6624 29.7993 25.4239 29.8528 25.1559C29.9062 24.8879 29.8577 24.6095 29.7168 24.3753C29.5758 24.1411 29.3526 23.968 29.0907 23.8898C28.8288 23.8115 28.5471 23.8339 28.3008 23.9524L28.1769 24.0153L30.1288 22.3879C30.2931 22.2509 30.4083 22.064 30.4568 21.8556C30.5053 21.6471 30.4845 21.4286 30.3975 21.233C30.3106 21.0375 30.1622 20.8757 29.9749 20.7722C29.7876 20.6686 29.5717 20.629 29.3598 20.6593L29.6479 20.4135C29.8348 20.2534 29.9549 20.0292 29.9845 19.7849C30.0141 19.5406 29.9511 19.2942 29.8079 19.0941C29.6646 18.8941 29.4516 18.755 29.2108 18.7043C28.97 18.6537 28.719 18.6951 28.5073 18.8205M2.95927 18.8205C2.93124 18.6218 2.96468 18.4193 3.0551 18.2401C3.14552 18.061 3.28858 17.9138 3.46509 17.8183C3.6416 17.7228 3.8431 17.6836 4.04252 17.706C4.24195 17.7284 4.42976 17.8112 4.58073 17.9434L8.28088 21.1804L8.35856 21.1411C8.35856 20.735 8.32119 20.3663 8.28776 20.0349C8.19927 19.1617 8.13732 18.5472 8.85021 18.1912C10.1659 17.5334 10.7696 19.7291 11.1737 21.8717C11.2662 22.3594 11.4884 22.8108 11.7362 23.2405C13.044 25.505 11.8011 27.7774 10.8168 28.5158C9.0567 29.8354 7.37526 29.4991 5.90032 28.5158C5.00748 27.9209 3.30933 26.7262 2.03891 25.8246C1.82019 25.6619 1.66983 25.4237 1.61711 25.1563C1.56438 24.8888 1.61307 24.6114 1.75368 24.3779C1.89429 24.1444 2.11677 23.9716 2.37779 23.8931C2.63882 23.8146 2.9197 23.8361 3.16577 23.9533L3.28966 24.0163L1.33782 22.3889C1.17358 22.2519 1.05849 22.0651 1.00999 21.8568C0.961492 21.6485 0.98223 21.4301 1.06906 21.2346C1.15589 21.0392 1.30408 20.8774 1.49116 20.7737C1.67825 20.6701 1.89402 20.6302 2.10577 20.6603L1.81865 20.4145C1.63176 20.2544 1.51165 20.0301 1.48205 19.7859C1.45244 19.5416 1.51548 19.2951 1.65872 19.0951C1.80197 18.8951 2.01501 18.756 2.25578 18.7053C2.49656 18.6547 2.74757 18.6961 2.95927 18.8215" fill="white"/>
</svg>
