<svg width="28" height="26" viewBox="0 0 28 26" fill="none" xmlns="http://www.w3.org/2000/svg">
<path fill-rule="evenodd" clip-rule="evenodd" d="M8.08125 0.077C9.5475 0.014 10.015 0 13.75 0C17.485 0 17.9525 0.0151667 19.4175 0.077C20.8825 0.138833 21.8825 0.357 22.7575 0.673167C23.6737 0.996333 24.505 1.5015 25.1925 2.15483C25.8925 2.79533 26.4325 3.57 26.7775 4.42633C27.1175 5.243 27.35 6.17633 27.4175 7.54133C27.485 8.91217 27.5 9.3485 27.5 12.8333C27.5 16.3193 27.4837 16.7557 27.4175 18.1242C27.3512 19.4892 27.1175 20.4225 26.7775 21.2392C26.4325 22.0956 25.8916 22.8716 25.1925 23.513C24.505 24.1663 23.6737 24.6703 22.7575 24.9923C21.8825 25.3097 20.8825 25.5267 19.42 25.5897C17.9525 25.6527 17.485 25.6667 13.75 25.6667C10.015 25.6667 9.5475 25.6515 8.08125 25.5897C6.61875 25.5278 5.61875 25.3097 4.74375 24.9923C3.82615 24.6703 2.99478 24.1655 2.3075 23.513C1.60797 22.8721 1.06664 22.0965 0.72125 21.2403C0.3825 20.4237 0.15 19.4903 0.0825 18.1253C0.015 16.7545 0 16.3182 0 12.8333C0 9.34733 0.01625 8.911 0.0825 7.54367C0.14875 6.17633 0.3825 5.243 0.72125 4.42633C1.06715 3.5701 1.6089 2.79453 2.30875 2.15367C2.99505 1.50092 3.82559 0.995684 4.7425 0.673167C5.6175 0.357 6.6175 0.14 8.08 0.077H8.08125ZM19.3062 2.387C17.8562 2.32517 17.4212 2.31233 13.75 2.31233C10.0787 2.31233 9.64375 2.32517 8.19375 2.387C6.8525 2.44417 6.125 2.653 5.64 2.82917C4.99875 3.0625 4.54 3.339 4.05875 3.78817C3.60256 4.20239 3.25148 4.70666 3.03125 5.264C2.8425 5.71667 2.61875 6.39567 2.5575 7.6475C2.49125 9.00083 2.4775 9.40683 2.4775 12.8333C2.4775 16.2598 2.49125 16.6658 2.5575 18.0192C2.61875 19.271 2.8425 19.95 3.03125 20.4027C3.25125 20.9592 3.6025 21.4643 4.05875 21.8785C4.5025 22.3043 5.04375 22.6322 5.64 22.8375C6.125 23.0137 6.8525 23.2225 8.19375 23.2797C9.64375 23.3415 10.0775 23.3543 13.75 23.3543C17.4225 23.3543 17.8562 23.3415 19.3062 23.2797C20.6475 23.2225 21.375 23.0137 21.86 22.8375C22.5013 22.6042 22.96 22.3277 23.4412 21.8785C23.8975 21.4643 24.2488 20.9592 24.4688 20.4027C24.6575 19.95 24.8813 19.271 24.9425 18.0192C25.0088 16.6658 25.0225 16.2598 25.0225 12.8333C25.0225 9.40683 25.0088 9.00083 24.9425 7.6475C24.8813 6.39567 24.6575 5.71667 24.4688 5.264C24.2188 4.6655 23.9225 4.23733 23.4412 3.78817C22.9974 3.36242 22.4571 3.03475 21.86 2.82917C21.375 2.653 20.6475 2.44417 19.3062 2.387ZM11.9938 16.7895C12.9746 17.1706 14.0667 17.222 15.0837 16.935C16.1006 16.648 16.9792 16.0404 17.5695 15.216C18.1598 14.3915 18.4251 13.4014 18.3201 12.4146C18.215 11.4279 17.7463 10.5058 16.9937 9.80583C16.514 9.35839 15.934 9.01578 15.2954 8.80267C14.6568 8.58956 13.9755 8.51125 13.3006 8.57339C12.6257 8.63552 11.9739 8.83654 11.3923 9.16199C10.8106 9.48743 10.3134 9.9292 9.93663 10.4555C9.55983 10.9818 9.31274 11.5795 9.21314 12.2056C9.11355 12.8317 9.16394 13.4707 9.36067 14.0764C9.55741 14.6822 9.8956 15.2397 10.3509 15.7088C10.8062 16.178 11.3673 16.547 11.9938 16.7895ZM8.7525 8.169C9.40878 7.55647 10.1879 7.07059 11.0454 6.73909C11.9028 6.40759 12.8219 6.23697 13.75 6.23697C14.6781 6.23697 15.5972 6.40759 16.4546 6.73909C17.3121 7.07059 18.0912 7.55647 18.7475 8.169C19.4038 8.78153 19.9244 9.50871 20.2795 10.309C20.6347 11.1093 20.8175 11.9671 20.8175 12.8333C20.8175 13.6996 20.6347 14.5573 20.2795 15.3577C19.9244 16.158 19.4038 16.8851 18.7475 17.4977C17.4221 18.7347 15.6244 19.4297 13.75 19.4297C11.8756 19.4297 10.0779 18.7347 8.7525 17.4977C7.42708 16.2606 6.68247 14.5828 6.68247 12.8333C6.68247 11.0839 7.42708 9.40606 8.7525 8.169ZM22.385 7.21933C22.5476 7.07615 22.6778 6.90396 22.7679 6.71297C22.8579 6.52198 22.906 6.31606 22.9093 6.10742C22.9125 5.89877 22.8709 5.69164 22.7869 5.49828C22.7028 5.30492 22.578 5.12926 22.42 4.98171C22.2619 4.83416 22.0737 4.71772 21.8665 4.63927C21.6593 4.56082 21.4374 4.52197 21.2138 4.52501C20.9903 4.52806 20.7697 4.57293 20.565 4.65698C20.3604 4.74103 20.1759 4.86255 20.0225 5.01433C19.7241 5.30953 19.5608 5.70164 19.5671 6.10742C19.5735 6.5132 19.749 6.90069 20.0564 7.18765C20.3639 7.47461 20.7791 7.63843 21.2138 7.64435C21.6486 7.65026 22.0687 7.49781 22.385 7.21933Z" fill="white"/>
</svg>
