<svg width="32" height="32" viewBox="0 0 32 32" fill="none" xmlns="http://www.w3.org/2000/svg">
<g clip-path="url(#clip0_1887_14411)">
<path d="M24.7795 31.2832C24.7552 31.3995 24.6283 31.4653 24.4162 31.4653H20.3639C20.1223 31.4653 19.9105 31.3594 19.7284 31.1476L13.0372 22.6352L11.1656 24.406V31.01C11.1656 31.3132 11.0193 31.4644 10.7171 31.4644H7.57348C7.27123 31.4644 7.11979 31.3129 7.11914 31.01V0.919676C7.11914 0.621301 7.27123 0.465332 7.57348 0.465332H10.7171C11.0193 0.465332 11.1656 0.621301 11.1656 0.919676V19.4461L19.1781 11.3483C19.3951 11.1313 19.6073 11.0305 19.8185 11.0305H24.0025C24.1879 11.0292 24.3106 11.1064 24.3706 11.2621C24.4313 11.4558 24.4162 11.5905 24.3251 11.666L15.8582 19.8607L24.6884 30.8492C24.8095 30.9858 24.8395 31.1166 24.7785 31.3142L24.7795 31.2832Z" fill="white"/>
</g>
<defs>
<clipPath id="clip0_1887_14411">
<rect width="31" height="31" fill="white" transform="translate(0.464844 0.465332)"/>
</clipPath>
</defs>
</svg>
