<svg width="30" height="31" viewBox="0 0 30 31" fill="none" xmlns="http://www.w3.org/2000/svg">
<g clip-path="url(#clip0_1887_14402)">
<path d="M27.7793 0.465332H2.21484C0.990234 0.465332 0 1.43213 0 2.62744V28.2974C0 29.4927 0.990234 30.4653 2.21484 30.4653H27.7793C29.0039 30.4653 30 29.4927 30 28.3032V2.62744C30 1.43213 29.0039 0.465332 27.7793 0.465332ZM8.90039 26.0298H4.44727V11.7095H8.90039V26.0298ZM6.67383 9.7583C5.24414 9.7583 4.08984 8.604 4.08984 7.18018C4.08984 5.75635 5.24414 4.60205 6.67383 4.60205C8.09766 4.60205 9.25195 5.75635 9.25195 7.18018C9.25195 8.59814 8.09766 9.7583 6.67383 9.7583ZM25.5645 26.0298H21.1172V19.0688C21.1172 17.4106 21.0879 15.272 18.8027 15.272C16.4883 15.272 16.1367 17.0825 16.1367 18.9517V26.0298H11.6953V11.7095H15.9609V13.6665H16.0195C16.6113 12.5415 18.0645 11.3521 20.2266 11.3521C24.7324 11.3521 25.5645 14.3169 25.5645 18.1724V26.0298Z" fill="white"/>
</g>
<defs>
<clipPath id="clip0_1887_14402">
<rect width="30" height="30" fill="white" transform="translate(0 0.465332)"/>
</clipPath>
</defs>
</svg>
