<svg width="28" height="27" viewBox="0 0 28 27" fill="none" xmlns="http://www.w3.org/2000/svg">
<path fill-rule="evenodd" clip-rule="evenodd" d="M11.0012 10.4638H15.3342V12.6221C15.9583 11.3808 17.559 10.2654 19.9635 10.2654C24.573 10.2654 25.6673 12.7364 25.6673 17.2701V25.6666H21.0007V18.3026C21.0007 15.7208 20.3765 14.2648 18.7875 14.2648C16.5837 14.2648 15.6678 15.8339 15.6678 18.3014V25.6666H11.0012V10.4638ZM2.99898 25.4683H7.66565V10.2654H2.99898V25.4683ZM8.33415 5.30825C8.33432 5.69941 8.25675 6.08669 8.10594 6.4476C7.95512 6.80851 7.73408 7.13585 7.45565 7.41059C6.89145 7.97131 6.12776 8.28518 5.33232 8.28325C4.53827 8.28272 3.77635 7.96965 3.21132 7.41175C2.9339 7.13608 2.7136 6.80838 2.56305 6.44742C2.4125 6.08646 2.33466 5.69935 2.33398 5.30825C2.33398 4.51842 2.64898 3.76242 3.21248 3.20475C3.77702 2.6461 4.53926 2.3329 5.33348 2.33325C6.12915 2.33325 6.89215 2.64709 7.45565 3.20475C8.01798 3.76242 8.33415 4.51842 8.33415 5.30825Z" fill="white"/>
</svg>
