<svg width="24" height="24" viewBox="0 0 24 24" fill="none" xmlns="http://www.w3.org/2000/svg">
<path d="M2.00195 5.99853C2.00195 5.4681 2.21267 4.95939 2.58774 4.58432C2.96281 4.20925 3.47152 3.99854 4.00195 3.99854H20.002C20.5324 3.99854 21.0411 4.20925 21.4162 4.58432C21.7912 4.95939 22.002 5.4681 22.002 5.99853V17.9985C22.002 18.529 21.7912 19.0377 21.4162 19.4127C21.0411 19.7878 20.5324 19.9985 20.002 19.9985H4.00195C3.47152 19.9985 2.96281 19.7878 2.58774 19.4127C2.21267 19.0377 2.00195 18.529 2.00195 17.9985V5.99853Z" stroke="white" stroke-width="2" stroke-linecap="round" stroke-linejoin="round"/>
<path d="M2.00195 8.00146L9.50295 14.0025C10.2122 14.57 11.0936 14.8792 12.002 14.8792C12.9103 14.8792 13.7917 14.57 14.501 14.0025L22.002 8.00146" stroke="white" stroke-width="2" stroke-linecap="round" stroke-linejoin="round"/>
</svg>
