<svg width="24" height="24" viewBox="0 0 24 24" fill="none" xmlns="http://www.w3.org/2000/svg">
<path d="M10.5542 6.23783L7.17123 2.33283C6.78123 1.88283 6.06623 1.88483 5.61323 2.33883L2.83123 5.12583C2.00323 5.95483 1.76623 7.18583 2.24523 8.17283C5.10685 14.0978 9.88528 18.8829 15.8062 21.7528C16.7922 22.2318 18.0222 21.9948 18.8502 21.1658L21.6582 18.3528C22.1132 17.8978 22.1142 17.1788 21.6602 16.7888L17.7402 13.4238C17.3302 13.0718 16.6932 13.1178 16.2822 13.5298L14.9182 14.8958C14.8484 14.969 14.7565 15.0173 14.6566 15.0332C14.5567 15.0491 14.4543 15.0317 14.3652 14.9838C12.1357 13.6999 10.2862 11.8481 9.00523 9.61683C8.95726 9.52758 8.93989 9.42506 8.95578 9.32499C8.97168 9.22492 9.01996 9.13282 9.09323 9.06283L10.4532 7.70183C10.8652 7.28783 10.9102 6.64783 10.5542 6.23683V6.23783Z" stroke="white" stroke-width="2" stroke-linecap="round" stroke-linejoin="round"/>
</svg>
