<svg width="280" height="36" viewBox="0 0 280 36" fill="none" xmlns="http://www.w3.org/2000/svg">
<path fill-rule="evenodd" clip-rule="evenodd" d="M211.097 0.144014C171.732 0.552922 160.476 0.818926 138.635 1.8573C116 2.93337 99.8014 4.01203 74.0994 6.15471C68.1411 6.65143 61.7613 7.12283 54.2821 7.61886C26.8078 9.44096 21.4614 9.92649 12.5797 11.4054C8.17902 12.1384 4.37324 12.6456 2.24021 12.7839C0.343787 12.9066 0 12.9839 0 13.2875C0 13.5557 3.03308 13.7907 4.69204 13.6509C5.28656 13.601 6.89727 13.4786 8.27156 13.3792C9.64585 13.2797 12.6701 13.0127 14.9922 12.7857C20.4602 12.2512 23.0856 12.0826 32.4831 11.6627C48.2813 10.9568 60.2156 10.2784 74.8748 9.25312C80.2772 8.8752 87.4502 8.3735 90.8148 8.13814C116.333 6.35289 147.504 4.76098 166.551 4.27046C189.665 3.67492 261.421 3.14842 260.21 3.58298C259.729 3.75532 251.518 5.03714 246.596 5.70827C242.074 6.32482 234.52 7.21408 225.228 8.2237C220.82 8.70268 214.772 9.36555 211.786 9.69681C200.571 10.9414 196.877 11.3274 190.504 11.9213C161.149 14.6566 141.758 17.0401 114.768 21.2304C98.7254 23.7211 85.5762 26.5804 70.9021 30.7691C62.5592 33.1506 61.7463 33.5736 62.5675 35.1068C63.1018 36.1044 67.3114 36.2337 75.8018 35.5132C91.318 34.1966 105.899 33.1754 120.024 32.4161C128.884 31.9399 130.057 31.86 139.066 31.1207C142.43 30.8447 148.246 30.4411 151.99 30.2242L158.797 29.8298L149.75 29.6743C136.04 29.4386 121.334 29.4529 116.491 29.7067C100.457 30.5469 91.7354 31.1935 77.4899 32.5983C74.0944 32.9331 71.2299 33.1783 71.124 33.1432C70.1039 32.8033 92.938 27.6681 103.831 25.7877C128.421 21.5424 153.744 18.375 192.658 14.6764C196.213 14.3386 203.347 13.5996 208.512 13.0344C213.678 12.469 221.82 11.5788 226.606 11.0559C245.029 9.04376 250.517 8.29429 268.223 5.37339C279.562 3.50257 279.623 3.48656 279.932 2.25622C280.272 0.903466 279.363 0.289676 276.761 0.114233C274.288 -0.0526022 227.999 -0.0316018 211.097 0.144014ZM159.531 29.6932C159.746 29.7344 160.056 29.7328 160.22 29.6898C160.385 29.6467 160.21 29.613 159.831 29.6149C159.452 29.6168 159.317 29.6521 159.531 29.6932Z" fill="white"/>
</svg>
