<svg width="247" height="31" viewBox="0 0 247 31" fill="none" xmlns="http://www.w3.org/2000/svg">
<path fill-rule="evenodd" clip-rule="evenodd" d="M196.072 1.51151C169.423 0.0486061 150.472 -0.115456 124.01 0.887372C102.245 1.71231 87.7914 2.62342 63.0687 4.72898C48.531 5.96702 42.8241 6.61525 31.2001 8.34838C22.045 9.71345 16.3303 10.4867 10.9282 11.0912C2.88837 11.9911 0.0411501 12.4743 0.0034405 12.9454C-0.0131692 13.153 0.246668 13.2231 0.486661 13.076C0.694808 12.9483 1.78936 12.8138 8.50351 12.0906C14.1243 11.485 18.2796 10.971 26.6469 9.84562C45.4183 7.32124 47.1514 7.15296 76.1165 5.04415C117.185 2.05403 150.4 1.31736 182.113 2.69342C212.227 4.00008 236.933 6.22512 243.16 8.19118C244.189 8.51599 244.195 8.49516 242.969 8.80511C240.116 9.52663 233.801 10.1339 221.357 10.8831C207.148 11.7387 199.45 12.0537 176.4 12.723C158.847 13.2327 158.425 13.2508 135.199 14.4866C110.87 15.7812 100.147 16.4741 85.5617 17.6941C80.4112 18.1248 79.9782 18.1537 73.6547 18.4876C61.072 19.1519 50.2375 20.0873 39.5653 21.4307C36.0907 21.868 35.449 22.134 36.2961 22.7856C36.978 23.3103 43.0154 22.9464 58.0453 21.4748C76.5948 19.6585 79.2017 19.4638 89.8142 19.1012C105.029 18.5812 117.687 18.4524 128.245 18.7101C138.824 18.9683 156.497 19.6103 166.057 20.0836C171.397 20.3479 192.045 21.7819 193.066 21.9593L193.86 22.0972L193.104 22.1719C191.787 22.3023 168.507 23.8164 158.274 24.4373C155.07 24.6317 150.446 24.8903 147.997 25.0119C140.017 25.4083 122.88 26.4534 119.851 26.7283C117.959 26.9001 117.254 27.4835 118.086 28.1884C118.653 28.6685 122.689 29.0073 131.489 29.3133C133.583 29.3862 137.439 29.5363 140.056 29.647C142.673 29.7577 146.588 29.8708 148.757 29.8983C150.926 29.9257 154.173 30.0103 155.972 30.0862C157.771 30.1621 160.039 30.2488 161.012 30.2788L162.781 30.3335L161.223 30.202C159.184 30.0298 154.393 29.514 150.336 29.03C145.578 28.4624 135.118 27.7308 130.26 27.6259C129.711 27.614 129.52 27.5838 129.677 27.5336C129.983 27.4358 142.439 26.6869 148.294 26.4143C165.991 25.5906 196.292 23.5881 197.838 23.1404C199.21 22.7431 199.179 21.8668 197.775 21.3244C195.257 20.3526 171.447 18.7238 150.054 18.0601C148.221 18.0032 143.935 17.8616 140.531 17.7455C127.728 17.3088 115.127 17.1156 110.353 17.2831C110.052 17.2936 109.843 17.2781 109.888 17.2488C110.071 17.1302 143.432 15.357 156.365 14.7786C159.289 14.6477 167.752 14.3692 175.171 14.1596C200.957 13.4311 206.916 13.1913 222.544 12.2531C241.84 11.0946 247.13 10.1899 246.194 8.20808C245.414 6.55803 240.279 5.45002 225.878 3.82497C222.433 3.4362 201.414 1.80468 196.072 1.51151Z" fill="#B9FD50"/>
</svg>
