<svg width="280" height="74" viewBox="0 0 280 74" fill="none" xmlns="http://www.w3.org/2000/svg">
<path d="M11.664 50.96V69.248H5.184V21.224H11.664V26.192C14.184 22.736 18.36 20.36 23.04 20.36C32.112 20.36 38.52 27.2 38.52 38.576C38.52 49.952 32.112 56.864 23.04 56.864C18.504 56.864 14.472 54.776 11.664 50.96ZM31.752 38.576C31.752 31.376 27.792 26.12 21.312 26.12C17.352 26.12 13.392 28.424 11.664 31.232V45.992C13.392 48.728 17.352 51.104 21.312 51.104C27.792 51.104 31.752 45.848 31.752 38.576ZM43.7147 51.464L46.8107 46.712C49.1867 49.304 53.7947 51.68 58.4747 51.68C63.3707 51.68 65.9627 49.664 65.9627 46.712C65.9627 43.256 62.0027 42.104 57.5387 41.096C51.6347 39.728 44.7227 38.144 44.7227 30.656C44.7227 25.112 49.4747 20.36 57.9707 20.36C63.9467 20.36 68.2667 22.52 71.2187 25.328L68.3387 29.864C66.3227 27.416 62.4347 25.616 58.0427 25.616C53.6507 25.616 50.9147 27.344 50.9147 30.152C50.9147 33.176 54.6587 34.184 58.9787 35.192C65.0267 36.56 72.2267 38.216 72.2267 46.208C72.2267 52.184 67.3307 56.864 58.1867 56.864C52.3547 56.864 47.2427 55.064 43.7147 51.464ZM78.6904 69.608L79.6984 63.776C80.4904 64.136 81.7144 64.352 82.5784 64.352C84.9544 64.352 86.5384 63.56 87.6184 60.968L89.6344 56.36L75.3064 21.224H82.2184L93.0904 48.512L103.962 21.224H110.946L93.8104 62.624C91.5784 68.096 87.7624 70.04 82.7224 70.112C81.6424 70.112 79.6984 69.896 78.6904 69.608Z" fill="#0A6EBD"/>
<path d="M166.024 38.576C166.024 28.496 173.296 20.36 183.448 20.36C193.888 20.36 200.368 28.496 200.368 39.152V40.736H172.864C173.368 46.64 177.688 51.536 184.672 51.536C188.344 51.536 192.376 50.096 194.968 47.432L197.992 51.68C194.536 55.064 189.64 56.864 184.024 56.864C173.656 56.864 166.024 49.52 166.024 38.576ZM183.448 25.688C176.464 25.688 173.152 31.304 172.792 36.056H194.032C193.888 31.448 190.792 25.688 183.448 25.688ZM235.464 56H228.12L218.4 42.464L208.608 56H201.264L214.296 38.144L202.056 21.224H209.4L218.4 33.752L227.328 21.224H234.672L222.36 38.144L235.464 56ZM269.175 56H262.695V52.184C259.959 55.208 255.999 56.864 251.319 56.864C245.559 56.864 239.223 52.976 239.223 45.344C239.223 37.424 245.487 33.968 251.319 33.968C255.999 33.968 260.031 35.48 262.695 38.576V32.816C262.695 28.496 259.167 25.904 254.199 25.904C250.239 25.904 246.855 27.416 243.759 30.512L240.951 26.048C244.839 22.232 249.591 20.36 255.207 20.36C262.767 20.36 269.175 23.672 269.175 32.528V56ZM262.695 48.368V42.464C260.751 39.872 257.367 38.504 253.767 38.504C249.087 38.504 245.775 41.312 245.775 45.416C245.775 49.52 249.087 52.328 253.767 52.328C257.367 52.328 260.751 50.96 262.695 48.368Z" fill="#0A6EBD"/>
<circle cx="149" cy="6" r="5.5" fill="#0A6EBD" stroke="white"/>
<path d="M143.5 6C145.5 6.83333 150 7.7 154 4.5" stroke="black" stroke-linecap="round"/>
<circle cx="149.5" cy="6.5" r="1.5" fill="#0D1717"/>
<circle cx="149" cy="6" r="5.5" stroke="#F5F5F7"/>
<path d="M127.49 50.8876V58.6039C126.896 62.8441 117.396 62.6343 117 58.6039V30.9154C117 25.5065 123.135 21.9406 127.49 26.93L134.417 37.4629L141.344 48.1607C146.292 56.9707 155 53.8242 155 47.3217V40.6093V33.6872V22.3152C155 15.2283 140.354 15.2282 140.354 22.3152V32.3837" stroke="#0A6EBD" stroke-width="5" stroke-linecap="round"/>
</svg>
